<svg width="39" height="39" viewBox="0 0 39 39" fill="none" xmlns="http://www.w3.org/2000/svg">
<path d="M39 19.6193C39 8.78393 30.2695 0 19.5 0C8.73053 0 0 8.78393 0 19.6193C0 29.4118 7.13096 37.5284 16.4531 39V25.2906H11.5018V19.6193H16.4531V15.297C16.4531 10.3799 19.3645 7.66374 23.8186 7.66374C25.9521 7.66374 28.1837 8.04682 28.1837 8.04682V12.8752H25.7247C23.3024 12.8752 22.5469 14.3875 22.5469 15.939V19.6193H27.9552L27.0906 25.2906H22.5469V39C31.8691 37.5284 39 29.4118 39 19.6193Z" fill="#4676ED"/>
<path d="M26.886 25.3059L27.7671 19.7379H22.2557V16.1246C22.2557 14.6013 23.0256 13.1166 25.4941 13.1166H28V8.3761C28 8.3761 25.7258 8 23.5516 8C19.0126 8 16.0457 10.6667 16.0457 15.4942V19.7379H11V25.3059H16.0457V38.7657C17.0575 38.9198 18.0944 39 19.1507 39C20.207 39 21.2439 38.9198 22.2557 38.7657V25.3059H26.886Z" fill="white"/>
</svg>
