<svg width="134" height="116" viewBox="0 0 134 116" fill="none" xmlns="http://www.w3.org/2000/svg">
<path d="M55.8527 14.8945H45.4466C45.3585 14.8945 45.2771 14.9415 45.233 15.0177L20.4551 57.8416C20.4112 57.9174 20.4108 58.0108 20.454 58.0869L45.2333 101.768C45.2772 101.846 45.3592 101.893 45.448 101.893H55.8534C56.0426 101.893 56.1614 101.689 56.0681 101.525L31.634 58.4353C31.5911 58.3597 31.5912 58.2671 31.6342 58.1915L56.0671 15.2634C56.1608 15.0989 56.042 14.8945 55.8527 14.8945Z" fill="#278AC1"/>
<path d="M93.6465 0.493666L113.145 33.9198C113.229 34.0637 113.126 34.2444 112.959 34.2444C105.388 34.2444 98.3696 30.2779 94.4644 23.7914L86.5977 10.7247C86.5084 10.5764 86.3479 10.4857 86.1748 10.4857H39.6098C39.4353 10.4857 39.2737 10.5779 39.1849 10.7281L11.1759 58.1013C11.0843 58.2563 11.0843 58.4488 11.1759 58.6037L39.1849 105.977C39.2737 106.127 39.4353 106.219 39.6098 106.219H86.9537C87.1295 106.219 87.2919 106.126 87.3803 105.974L95.705 91.6665C99.273 85.5343 105.833 81.7619 112.927 81.7619C113.081 81.7619 113.177 81.9285 113.099 82.0613L93.6463 115.511C93.4695 115.815 93.1445 116.002 92.7929 116.002H33.958C33.6056 116.002 33.2799 115.814 33.1035 115.509L0.132612 58.4973C-0.0442054 58.1916 -0.0442035 57.8147 0.132614 57.5089L33.1035 0.496878C33.2799 0.191792 33.6056 0.00390625 33.958 0.00390625H92.7938C93.1449 0.00390625 93.4696 0.190391 93.6465 0.493666Z" fill="#278AC1"/>
<path d="M114.514 0.00195312H102.041C101.946 0.00195312 101.887 0.105162 101.935 0.186802L115.849 23.6963C119.624 30.074 126.484 33.9857 133.895 33.9857C133.976 33.9857 134.026 33.8987 133.986 33.8288L114.727 0.125371C114.683 0.0490524 114.602 0.00195312 114.514 0.00195312Z" fill="#278AC1"/>
<path d="M114.514 115.129H102.041C101.946 115.129 101.887 115.026 101.935 114.944L115.849 91.4345C119.624 85.0569 126.484 81.1452 133.895 81.1452C133.976 81.1452 134.026 81.2321 133.986 81.302L114.727 115.005C114.683 115.082 114.602 115.129 114.514 115.129Z" fill="#278AC1"/>
</svg>
