<svg width="39" height="39" viewBox="0 0 39 39" fill="none" xmlns="http://www.w3.org/2000/svg">
<path d="M39 19.5C39 30.2695 30.2695 39 19.5 39C8.73052 39 0 30.2695 0 19.5C0 8.73051 8.73052 0 19.5 0C30.2695 0 39 8.73051 39 19.5Z" fill="#4467AD"/>
<path d="M22.3801 17.0256C22.616 16.7291 22.8102 16.4279 23.0525 16.1724C23.7972 15.3869 24.6779 14.9904 25.7062 15.0002C26.2714 15.0054 26.8302 15.0511 27.3749 15.2276C28.6213 15.6309 29.3455 16.5913 29.6908 17.954C29.9499 18.976 29.9975 20.0254 29.9992 21.0779C30.0026 23.2983 29.9935 25.5185 29.9977 27.739C29.9982 27.9469 29.9463 28.0014 29.7633 27.9995C28.7416 27.9902 27.7195 27.99 26.6979 28C26.5181 28.0016 26.4792 27.9392 26.4798 27.7492C26.4856 25.6364 26.4868 23.5238 26.4809 21.411C26.4792 20.8817 26.4492 20.3526 26.3164 19.8378C26.072 18.8896 25.4658 18.4064 24.5783 18.4588C23.3665 18.5305 22.7364 19.2022 22.582 20.5814C22.545 20.911 22.5275 21.2405 22.5277 21.5724C22.5294 23.6272 22.5258 25.6816 22.5326 27.7364C22.5332 27.9414 22.4875 28.0019 22.3005 28C21.2714 27.9897 20.2421 27.9909 19.2127 27.999C19.0479 28.0004 19 27.9507 19.0002 27.764C19.0049 23.696 19.0049 19.628 19 15.56C18.9998 15.3588 19.0587 15.3121 19.2287 15.3135C20.2061 15.3216 21.1838 15.3226 22.161 15.3128C22.341 15.3112 22.3873 15.3762 22.3833 15.5669C22.3733 16.0529 22.3801 16.5394 22.3801 17.0256Z" fill="#FEFEFE"/>
<path d="M15.9952 21.5185C15.9952 23.5803 15.9918 25.6423 16 27.7042C16.001 27.9333 15.9446 28.0026 15.7105 27.9999C14.5543 27.987 13.3975 27.9902 12.2411 27.9982C12.0559 27.9997 12 27.9526 12 27.7586C12.0058 23.5839 12.0053 19.4092 12.0012 15.2345C12.001 15.0618 12.0424 15.0003 12.2235 15.0013C13.3966 15.0091 14.5699 15.0113 15.743 15C15.9684 14.9976 15.9993 15.0864 15.9988 15.2821C15.9932 17.3609 15.9952 19.4397 15.9952 21.5185Z" fill="#FEFEFE"/>
</svg>
